#!OML:ASF F:\VICON\USERDATA\INSTALL\rory3\rory3.ASF
:FULLY-SPECIFIED
:DEGREES
141
root -0.534403340636437 17.419611145431155 42.16456758163494 3.1925797732329997 3.4787288052260137 3.5832863179280667
lfemur -15.051172566999277 2.2035728950740885 -27.740335521085463
ltibia 40.79394775142087
lfoot -12.996557874396565 3.4034406398138017
ltoes 3.411213881743688
rfemur -44.109748715493176 -11.16637436703172 15.442309960799934
rtibia 131.3465390386728
rfoot 17.980082535730357 -4.068133239439478
rtoes 17.530466048221005
lowerback 1.0 -0.6647555559880403 -2.91327816224716
upperback -0.02406028543764016 -0.5224665772032293 -1.1021874418433568
thorax -8.771829438994349 -0.8891631766537554 2.6001463388045156
lowerneck -24.581294686484622 -4.767672750839277 -1.3077370134490538
upperneck 15.577041486903006 -7.673305782079605 3.652547970361627
head 8.974681188795913 -2.6119769344451886 0.47898380187889933
lclavicle -3.4622315063328377e-15 -3.5201294230086543e-15
lhumerus -39.40450193376294 -8.388854419471508 92.9480601959239
lradius 106.96686594980149
lwrist 32.07087140617321
lhand -25.579760628068193 -8.165463783532896
lfingers nan
lthumb 2.269030973232722 24.544205630676657
rclavicle 3.662485656139327e-15 -2.7475970712036755e-16
rhumerus -54.86287855232024 2.878800175284841 -95.15802477011559
rradius 91.57069651833262
rwrist -7.322938378630795
rhand -21.546750784783974 1.0
rfingers nan
rthumb 5.073957515349301 14.178799052079967
142
root -0.47449050588015834 17.45774419243025 42.08991128519051 2.9452997386766455 4.895595111752035 3.778071216648361
lfemur -12.987152455168287 0.3261251461442023 -27.505436358487827
ltibia 39.59898943687059
lfoot -11.89168640616542 2.649222787587206
ltoes -0.29917504205888257
rfemur -43.7427673623352 -12.897650978303245 15.521289621070826
rtibia 129.1137302146248
rfoot 14.140519879186218 -2.9636669629674737
rtoes 10.332182021866942
lowerback 1.0 -1.4001146707189929 -1.9727535867871007
upperback -0.015989834668933445 -1.4225526121047407 -0.9223391170399361
thorax -8.865162428230795 -1.3120667325277364 2.659346206933551
lowerneck -22.48417681373998 -4.380765116196391 -1.7506006646735353
upperneck 14.939067727899667 -7.130288596767587 3.803792687802732
head 8.549082030776407 -2.333966987464128 0.6342979398319104
lclavicle 1.5417072713331707e-14 2.85189546209704e-15
lhumerus -39.38790869814602 -8.246002245399195 93.21690665747687
lradius 109.69063910638071
lwrist 32.88275972854493
lhand -26.36956113064991 -7.895034905342898
lfingers nan
lthumb 1.541784027838907 24.93088186582381
rclavicle 2.2628799261184442e-14 6.114962782958574e-15
rhumerus -56.27520099714809 3.67252098302834 -94.87666067746675
rradius 92.57831195382361
rwrist -9.80997324365372
rhand -20.851440775103065 1.0
rfingers nan
rthumb 5.753302809885605 14.076245671251487
143
root -0.49808645709603677 17.49830458531165 42.26898492996503 3.2384154493618142 3.5529629257132074 3.2761481680424382
lfemur -11.407843788122795 1.0238781454095165 -27.294678550425246
ltibia 38.45294231731502
lfoot -10.138273272726623 2.3043951912954768
ltoes -2.779532643404206
rfemur -45.741042257170875 -10.476494467585427 16.939780047905725
rtibia 127.26451523106321
rfoot 12.631245112588521 -2.829181733870872
rtoes 9.409286409251543
lowerback 1.0 -1.2648206699478244 -2.218729520020173
upperback -0.43582298595839364 -1.1147746585482836 -0.6706764281625303
thorax -9.307825150216313 -1.1629570476129016 2.812127707719365
lowerneck -18.396219640179396 -4.023683917607664 -2.496060319217839
upperneck 12.64613047255068 -6.432293406780314 4.433578597479462
head 7.516592516382506 -2.0638035736295923 0.9179752021638243
lclavicle 1.4250550917155634e-14 2.345582269348613e-14
lhumerus -39.53861990612187 -8.10784009126611 93.395835288878
lradius 112.5257259969421
lwrist 34.12543086970607
lhand -26.942765342754477 -8.585901440760518
lfingers nan
lthumb 1.028138761242737 24.323583285664608
rclavicle 2.1380518921840688e-14 2.6331813837476552e-14
rhumerus -57.70504768502251 4.444095670973367 -94.70371138627247
rradius 93.61396283807566
rwrist -11.946337806343733
rhand -20.457651105431417 1.0
rfingers nan
rthumb 6.151828708588848 14.565099811535458
144
root -0.5168527339918689 17.546854250514517 42.54627402547324 3.399271706250851 2.4702109653625515 2.816642570926208
lfemur -9.69726141910608 1.7298374871431932 -26.99792057004295
ltibia 37.2971777792575
lfoot -7.7681673512702805 1.9403282895967866
ltoes -5.638474336076317
rfemur -47.964518978152164 -8.39486361414733 18.06728329745059
rtibia 124.80059505649967
rfoot 11.762139094006137 -2.6902446867909813
rtoes 6.861323294829207
lowerback 1.0 -1.1192471916871238 -2.5375404550535667
upperback -0.5503453704428405 -0.9234906002221619 -0.38500808605693726
thorax -9.51729935934317 -1.003253465029513 3.0206633062060737
lowerneck -20.612351960250052 -4.005899109198478 -2.3167205188717155
upperneck 14.01121114846836 -6.293533469670576 4.008195779111413
head 8.111735708190217 -2.0398642230953055 0.7889662308297566
lclavicle -9.877220020542604e-15 -3.617598397996911e-15
lhumerus -39.23897156131722 -8.097484044657106 93.21574061431119
lradius 115.14535242009892
lwrist 35.270383663219675
lhand -25.999722006166582 -10.086552642308279
lfingers nan
lthumb 2.004160512774897 22.97931755743646
rclavicle -2.647314676367168e-15 -6.676600799763948e-16
rhumerus -58.46615608143117 5.317419535571704 -94.56970008630454
rradius 94.56941073946157
rwrist -13.615729371159947
rhand -20.422576533716004 1.0
rfingers nan
rthumb 6.19561877950879 14.76744947689819
